<?xml version="1.0" encoding="UTF-8" standalone="no"?>
<!DOCTYPE svg PUBLIC "-//W3C//DTD SVG 1.1//EN" "http://www.w3.org/Graphics/SVG/1.1/DTD/svg11.dtd">
<svg width="100%" height="100%" viewBox="0 0 1200 1200" version="1.1" xmlns="http://www.w3.org/2000/svg" xmlns:xlink="http://www.w3.org/1999/xlink" xml:space="preserve" xmlns:serif="http://www.serif.com/" style="fill-rule:evenodd;clip-rule:evenodd;stroke-linejoin:round;stroke-miterlimit:2;">
    <g transform="matrix(1,0,0,1,599.626,663.839)">
        <g transform="matrix(1,0,0,1,-600,-600)">
            <path d="M504,536.28C503.625,513.44 492.145,492.221 473.238,479.409C454.328,466.597 430.363,463.804 409.015,471.925C387.667,480.046 371.613,498.062 365.999,520.198L11.999,520.198L11.999,556.198L367.199,556.198C371.531,570.667 380.402,583.358 392.504,592.393C404.609,601.424 419.297,606.323 434.399,606.358C451.204,606.264 467.407,600.08 480.001,588.96L685.441,733.8L706.082,704.402L500.282,559.202C502.805,551.827 504.063,544.077 504.001,536.284L504,536.28ZM433.922,570.358C424.883,570.358 416.215,566.768 409.82,560.377C403.429,553.987 399.84,545.319 399.84,536.28C399.84,527.241 403.429,518.573 409.82,512.182C416.215,505.787 424.882,502.197 433.922,502.197C442.957,502.197 451.629,505.787 458.02,512.182C464.411,518.572 468.001,527.241 468.001,536.28C468.001,545.276 464.442,553.909 458.102,560.292C451.766,566.678 443.157,570.296 434.161,570.358L433.922,570.358Z" style="fill:white;fill-rule:nonzero;"/>
            <path d="M1188,520.2L834,520.2C828.711,497.985 812.914,479.747 791.676,471.345C770.442,462.943 746.442,465.435 727.383,478.025C708.328,490.611 696.613,511.705 696.004,534.533C695.399,557.365 705.969,579.053 724.328,592.638C742.687,606.22 766.519,609.99 788.172,602.732C809.828,595.474 826.574,578.107 833.039,556.201L1188,556.201L1188,520.2ZM765.6,570.36C756.561,570.36 747.893,566.77 741.498,560.38C735.107,553.989 731.518,545.321 731.518,536.282C731.518,527.243 735.107,518.575 741.498,512.184C747.893,505.789 756.56,502.199 765.6,502.199C774.635,502.199 783.307,505.789 789.698,512.184C796.089,518.574 799.679,527.243 799.679,536.282C799.647,545.266 796.081,553.884 789.749,560.259C783.413,566.637 774.827,570.267 765.839,570.361L765.6,570.36Z" style="fill:white;fill-rule:nonzero;"/>
        </g>
    </g>
</svg>
