<?xml version="1.0" encoding="UTF-8" standalone="no"?>
<!DOCTYPE svg PUBLIC "-//W3C//DTD SVG 1.1//EN" "http://www.w3.org/Graphics/SVG/1.1/DTD/svg11.dtd">
<svg width="100%" height="100%" viewBox="0 0 1200 1200" version="1.1" xmlns="http://www.w3.org/2000/svg" xmlns:xlink="http://www.w3.org/1999/xlink" xml:space="preserve" xmlns:serif="http://www.serif.com/" style="fill-rule:evenodd;clip-rule:evenodd;stroke-linejoin:round;stroke-miterlimit:2;">
    <path d="M1188,583.92L834,583.92C828.438,560.381 811.129,541.373 788.215,533.635C765.297,525.901 740.012,530.526 721.32,545.877L504,603.479C504.059,602.319 504.059,601.159 504,599.998C503.625,577.162 492.145,555.939 473.238,543.127C454.328,530.319 430.363,527.526 409.015,535.643C387.667,543.764 371.613,561.78 365.999,583.92L11.999,583.92L11.999,619.92L367.199,619.92C371.531,634.385 380.402,647.076 392.504,656.111C404.609,665.146 419.297,670.041 434.399,670.076C455.083,670.1 474.704,660.908 487.922,644.998L696.842,589.678L696.838,589.678C696.315,593.096 696.033,596.541 695.998,599.998C695.987,622.654 706.928,643.916 725.369,657.076C743.81,670.236 767.474,673.674 788.896,666.295C810.318,658.92 826.849,641.643 833.279,619.92L1188,619.92L1188,583.92ZM434.16,634.076C425.109,634.142 416.402,630.599 409.965,624.236C403.524,617.873 399.883,609.213 399.84,600.158C399.797,591.107 403.359,582.408 409.738,575.986C416.113,569.56 424.785,565.939 433.84,565.92C442.891,565.897 451.582,569.479 457.988,575.873C464.399,582.264 468,590.947 468,599.998C468.004,604.76 466.981,609.467 465,613.799C462.375,619.803 458.063,624.912 452.59,628.514C447.114,632.112 440.711,634.045 434.16,634.077L434.16,634.076ZM765.84,634.076C756.801,634.076 748.133,630.486 741.742,624.095C735.351,617.705 731.761,609.036 731.761,599.997C731.761,590.959 735.351,582.29 741.742,575.9C748.133,569.509 756.801,565.919 765.84,565.919C774.879,565.919 783.547,569.509 789.938,575.9C796.329,582.29 799.922,590.959 799.922,599.997C799.887,609.025 796.29,617.677 789.902,624.06C783.52,630.446 774.867,634.044 765.84,634.075L765.84,634.076Z" style="fill:white;fill-rule:nonzero;"/>
</svg>
